<svg width="740" height="127" viewBox="0 0 740 127" fill="none" xmlns="http://www.w3.org/2000/svg">
<path d="M75.125 74.1875C75.125 76.9792 74.7708 79.5 74.0625 81.75C73.3542 83.9583 72.4167 85.9167 71.25 87.625C70.0833 89.2917 68.7292 90.7292 67.1875 91.9375C65.6458 93.1042 64.0208 94.0625 62.3125 94.8125C60.6458 95.5625 58.9583 96.125 57.25 96.5C55.5417 96.8333 53.9167 97 52.375 97H23.0625V80.75H52.375C54.5417 80.75 56.1667 80.1875 57.25 79.0625C58.3333 77.9375 58.875 76.3125 58.875 74.1875V52.3125C58.875 50.0625 58.3125 48.3958 57.1875 47.3125C56.1042 46.2292 54.5 45.6875 52.375 45.6875H23.1875C20.9792 45.6875 19.3125 46.25 18.1875 47.375C17.0625 48.4583 16.5 50.0625 16.5 52.1875V118.125H0.25V52.1875C0.25 49.3958 0.604167 46.8958 1.3125 44.6875C2.02083 42.4792 2.95833 40.5417 4.125 38.875C5.33333 37.1667 6.70833 35.7292 8.25 34.5625C9.79167 33.3542 11.3958 32.375 13.0625 31.625C14.7708 30.875 16.4792 30.3333 18.1875 30C19.9375 29.625 21.5625 29.4375 23.0625 29.4375H52.375C55.1667 29.4375 57.6667 29.7917 59.875 30.5C62.0833 31.2083 64.0208 32.1458 65.6875 33.3125C67.3958 34.4792 68.8333 35.8333 70 37.375C71.2083 38.9167 72.1875 40.5417 72.9375 42.25C73.6875 43.9167 74.2292 45.6042 74.5625 47.3125C74.9375 49.0208 75.125 50.6458 75.125 52.1875V74.1875ZM161.688 51.8125C161.688 54.0625 161.292 56.5 160.5 59.125C159.708 61.7083 158.417 64.125 156.625 66.375C154.875 68.5833 152.562 70.4375 149.688 71.9375C146.854 73.4375 143.396 74.1875 139.312 74.1875H110V58.75H139.312C141.521 58.75 143.229 58.0833 144.438 56.75C145.646 55.375 146.25 53.6875 146.25 51.6875C146.25 49.5625 145.562 47.8958 144.188 46.6875C142.854 45.4792 141.229 44.875 139.312 44.875H110C107.792 44.875 106.083 45.5625 104.875 46.9375C103.667 48.2708 103.062 49.9375 103.062 51.9375V74.625C103.062 76.7917 103.729 78.4792 105.062 79.6875C106.438 80.8958 108.125 81.5 110.125 81.5H139.312V97H110C107.75 97 105.312 96.6042 102.688 95.8125C100.104 95.0208 97.6875 93.75 95.4375 92C93.2292 90.2083 91.375 87.8958 89.875 85.0625C88.375 82.1875 87.625 78.7083 87.625 74.625V51.8125C87.625 49.5625 88.0208 47.1458 88.8125 44.5625C89.6042 41.9375 90.875 39.5208 92.625 37.3125C94.4167 35.0625 96.7292 33.1875 99.5625 31.6875C102.438 30.1875 105.917 29.4375 110 29.4375H139.312C141.562 29.4375 143.979 29.8333 146.562 30.625C149.188 31.4167 151.604 32.7083 153.812 34.5C156.062 36.25 157.938 38.5625 159.438 41.4375C160.938 44.2708 161.688 47.7292 161.688 51.8125ZM247.5 97H231.25V59.5C231.25 57.375 230.875 55.4792 230.125 53.8125C229.417 52.1042 228.438 50.6458 227.188 49.4375C225.938 48.2292 224.458 47.3125 222.75 46.6875C221.083 46.0208 219.271 45.6875 217.312 45.6875H188.875V97H172.625V37.5C172.625 36.375 172.833 35.3333 173.25 34.375C173.667 33.375 174.25 32.5208 175 31.8125C175.75 31.0625 176.625 30.4792 177.625 30.0625C178.625 29.6458 179.688 29.4375 180.812 29.4375H217.438C219.479 29.4375 221.625 29.6667 223.875 30.125C226.167 30.5833 228.417 31.3333 230.625 32.375C232.875 33.375 235 34.6667 237 36.25C239.042 37.7917 240.833 39.6875 242.375 41.9375C243.958 44.1458 245.208 46.7083 246.125 49.625C247.042 52.5417 247.5 55.8333 247.5 59.5V97ZM336.625 97H320.375V59.5C320.375 57.375 320 55.4792 319.25 53.8125C318.542 52.1042 317.562 50.6458 316.312 49.4375C315.062 48.2292 313.583 47.3125 311.875 46.6875C310.208 46.0208 308.396 45.6875 306.438 45.6875H278V97H261.75V37.5C261.75 36.375 261.958 35.3333 262.375 34.375C262.792 33.375 263.375 32.5208 264.125 31.8125C264.875 31.0625 265.75 30.4792 266.75 30.0625C267.75 29.6458 268.812 29.4375 269.938 29.4375H306.562C308.604 29.4375 310.75 29.6667 313 30.125C315.292 30.5833 317.542 31.3333 319.75 32.375C322 33.375 324.125 34.6667 326.125 36.25C328.167 37.7917 329.958 39.6875 331.5 41.9375C333.083 44.1458 334.333 46.7083 335.25 49.625C336.167 52.5417 336.625 55.8333 336.625 59.5V97ZM425.375 103.5C425.375 106.292 425.021 108.792 424.312 111C423.604 113.25 422.667 115.208 421.5 116.875C420.333 118.583 418.979 120.021 417.438 121.188C415.896 122.396 414.271 123.375 412.562 124.125C410.896 124.875 409.208 125.417 407.5 125.75C405.792 126.125 404.167 126.312 402.625 126.312H373.312V110.062H402.625C404.792 110.062 406.417 109.5 407.5 108.375C408.583 107.25 409.125 105.625 409.125 103.5V29.4375H425.375V103.5ZM402.625 97H373.312C370.979 97 368.479 96.6042 365.812 95.8125C363.188 95.0208 360.729 93.7292 358.438 91.9375C356.146 90.1042 354.25 87.75 352.75 84.875C351.25 81.9583 350.5 78.3958 350.5 74.1875V29.4375H366.75V74.1875C366.75 76.3125 367.312 77.9375 368.438 79.0625C369.562 80.1875 371.229 80.75 373.438 80.75H402.625V97ZM552.125 29.4375C549.542 35.2292 546.75 40.9375 543.75 46.5625C540.75 52.1458 537.604 57.4375 534.312 62.4375C531.062 67.4375 527.729 72.0625 524.312 76.3125C520.896 80.5208 517.5 84.1667 514.125 87.25C510.792 90.2917 507.521 92.6875 504.312 94.4375C501.146 96.1458 498.146 97 495.312 97C494.146 97 493.062 96.7917 492.062 96.375C491.062 95.9583 490.188 95.3958 489.438 94.6875C488.688 93.9375 488.104 93.0625 487.688 92.0625C487.271 91.0625 487.062 89.9792 487.062 88.8125V58.5L454.812 94.5625C453.979 95.3958 453.062 96.0208 452.062 96.4375C451.104 96.8125 450.104 97 449.062 97C447.938 97 446.875 96.7917 445.875 96.375C444.917 95.9583 444.062 95.3958 443.312 94.6875C442.562 93.9375 441.958 93.0625 441.5 92.0625C441.083 91.0625 440.875 89.9792 440.875 88.8125V29.4375H457.125V67.9375L489.5 31.75C490.667 30.5833 492.042 29.8542 493.625 29.5625C495.25 29.2292 496.833 29.3958 498.375 30.0625C499.917 30.6875 501.125 31.6875 502 33.0625C502.917 34.3958 503.375 35.875 503.375 37.5V76.125C506.875 72.75 510.042 69.1875 512.875 65.4375C515.708 61.6875 518.333 57.8333 520.75 53.875C523.208 49.875 525.5 45.8333 527.625 41.75C529.792 37.625 531.896 33.5208 533.938 29.4375H552.125ZM574.25 15.5625H558V0.875H574.25V15.5625ZM574.25 97H558V29.4375H574.25V97ZM655.188 74.1875C655.188 76.9792 654.833 79.5 654.125 81.75C653.417 83.9583 652.479 85.9167 651.312 87.625C650.146 89.2917 648.792 90.7292 647.25 91.9375C645.708 93.1042 644.083 94.0625 642.375 94.8125C640.708 95.5625 639 96.125 637.25 96.5C635.542 96.8333 633.917 97 632.375 97H588.375V80.75H632.25C634.458 80.75 636.125 80.1875 637.25 79.0625C638.375 77.9375 638.938 76.3125 638.938 74.1875C638.729 69.8542 636.542 67.6875 632.375 67.6875H607.188C603.604 67.6875 600.562 67.0625 598.062 65.8125C595.562 64.5625 593.521 63 591.938 61.125C590.396 59.25 589.271 57.2292 588.562 55.0625C587.896 52.8958 587.562 50.875 587.562 49C587.562 45.375 588.208 42.3333 589.5 39.875C590.792 37.375 592.417 35.3542 594.375 33.8125C596.333 32.2708 598.458 31.1667 600.75 30.5C603.042 29.7917 605.188 29.4375 607.188 29.4375H647.125V45.6875H607.312C606.479 45.6875 605.812 45.7917 605.312 46C604.854 46.1667 604.5 46.4167 604.25 46.75C604.042 47.0417 603.917 47.375 603.875 47.75C603.833 48.0833 603.812 48.4167 603.812 48.75C603.854 49.4167 603.979 49.9375 604.188 50.3125C604.396 50.6875 604.646 50.9583 604.938 51.125C605.271 51.2917 605.625 51.3958 606 51.4375C606.417 51.4375 606.812 51.4375 607.188 51.4375H632.375C636.542 51.4375 640.083 52.1875 643 53.6875C645.917 55.1875 648.271 57.0833 650.062 59.375C651.854 61.625 653.146 64.0833 653.938 66.75C654.771 69.4167 655.188 71.8958 655.188 74.1875ZM739.312 51.8125C739.312 54.0625 738.917 56.5 738.125 59.125C737.333 61.7083 736.042 64.125 734.25 66.375C732.5 68.5833 730.188 70.4375 727.312 71.9375C724.479 73.4375 721.021 74.1875 716.938 74.1875H687.625V58.75H716.938C719.146 58.75 720.854 58.0833 722.062 56.75C723.271 55.375 723.875 53.6875 723.875 51.6875C723.875 49.5625 723.188 47.8958 721.812 46.6875C720.479 45.4792 718.854 44.875 716.938 44.875H687.625C685.417 44.875 683.708 45.5625 682.5 46.9375C681.292 48.2708 680.688 49.9375 680.688 51.9375V74.625C680.688 76.7917 681.354 78.4792 682.688 79.6875C684.062 80.8958 685.75 81.5 687.75 81.5H716.938V97H687.625C685.375 97 682.938 96.6042 680.312 95.8125C677.729 95.0208 675.312 93.75 673.062 92C670.854 90.2083 669 87.8958 667.5 85.0625C666 82.1875 665.25 78.7083 665.25 74.625V51.8125C665.25 49.5625 665.646 47.1458 666.438 44.5625C667.229 41.9375 668.5 39.5208 670.25 37.3125C672.042 35.0625 674.354 33.1875 677.188 31.6875C680.062 30.1875 683.542 29.4375 687.625 29.4375H716.938C719.188 29.4375 721.604 29.8333 724.188 30.625C726.812 31.4167 729.229 32.7083 731.438 34.5C733.688 36.25 735.562 38.5625 737.062 41.4375C738.562 44.2708 739.312 47.7292 739.312 51.8125Z" fill="black"/>
</svg>
